<svg viewBox="0 0 2400 1200" xmlns="http://www.w3.org/2000/svg"><g fill="none" fill-rule="evenodd"><path d="m0 0h2400v1200h-2400z" fill="#2300aa"/><path d="m324 755.5v-343.5h168.5c59.5 0 101.5 36 101.5 86 0 35-18 59.5-48.5 76 39.5 19 63 50.5 63 88 0 55-45.5 93.5-109.5 93.5zm62-203h91.5c30.5 0 52.5-18 52.5-43 0-25.5-22-43.5-52.5-43.5h-91.5zm0 149h100.5c34 0 58-20.5 58-49s-24-49-58-49h-100.5zm378.924 54c-47.803 0-84.314-17.691-107.275-43.287l36.888-42.533c18.82 18.82 42.91 28.23 67 28.23 25.971 0 40.275-10.916 40.275-25.972 0-16.185-12.422-24.466-45.169-24.466l-30.489.376v-54.202h30.49c25.971.376 39.898-8.28 39.898-23.337 0-15.809-15.432-25.22-38.77-25.22-22.96 0-41.78 10.917-58.719 27.478l-36.134-39.146c22.207-25.972 53.825-45.921 101.629-45.921 60.977 0 97.489 30.112 97.489 70.764 0 28.983-18.82 50.815-47.804 59.096 28.607 6.775 53.45 27.1 53.45 60.224 0 45.545-40.276 77.916-102.759 77.916zm229.076-208.5c16.5-34.5 50-56 92.5-56v52c-55.5 0-92.5 33-92.5 82v130.5h-61v-258.5h61zm315-50h61v231c0 66.5-56 113.5-135 113.5-44.5 0-85.5-14.5-111-34.5l22.5-44.5c18 16.5 49 27 79.5 27 51 0 83-24.5 83-63.5v-33.5c-20.5 27.5-51.5 44-88.5 44-67 0-116.5-51-116.5-123s49.5-122.5 116.5-122.5c36.5 0 70 17 88.5 44.5zm-71 187.5c41.5 0 71-29.5 71-71 0-41-29.5-70.5-71-70.5-41 0-70.5 29.5-70.5 70.5 0 41.5 29.5 71 70.5 71zm245.5 71v-271.5l-59 37.5-25.5-44 96.5-65.5h50v343.5zm467.62 4.284c-31.951-4.442-63.932-17.375-88.62-37.284l27.5-42.5c18.296 13.173 38.735 23.133 61.12 27.527v-62.577c-47.338-13.637-76.666-30.669-77.12-72.45 0-42.535 30.766-73.148 77.12-80.035v-30.505h45.08v30.99c26.923 4.196 52.819 14.857 74.3 29.05l-25.5 44.5c-15.97-10.104-32.791-17.02-48.8-20.612v55.842c40.503 11.705 80.8 28.268 80.8 78.27 0 43.62-31.837 73.65-80.8 80.17v23.33h-45.08zm45.08-52.463c13.442-4.087 21.8-12.602 21.8-23.821 0-12.262-8.457-19.45-21.8-25.019zm-45.08-161.258c-10.707 3.68-17.62 10.552-17.62 19.937 0 9.99 4.949 15.764 17.62 21.318zm-233.12-55.063c68.5 0 111 43.5 111 109v155.5h-59.5v-31c-19 24-51.5 37-81.5 37-55 0-96.5-32.5-96.5-82.5 0-51 47.5-86 105.5-86 23.5 0 49 5 72.5 14v-7c0-30-16.5-59-63.5-59-24.5 0-48 8.5-70 19.5l-21-42.5c36.5-18 70.5-27 103-27zm-16.5 226c29.5 0 61-15 68-42.5v-29c-19-6.5-40.5-10-63.5-10-30.5 0-55 17-55 41.5s21.5 40 50.5 40z" fill="#fff" fill-opacity=".7" fill-rule="nonzero"/></g></svg>